Coordinates
version=1
nRows=12
nColumns=24
inDegrees=yes

Units are S.I. units (second, meters, Newtons, ...)
Angles are in degrees.

endheader
time	pelvis_tilt	pelvis_list	pelvis_rotation	pelvis_tx	pelvis_ty	pelvis_tz	hip_flexion_r	hip_adduction_r	hip_rotation_r	knee_angle_r	ankle_angle_r	subtalar_angle_r	mtp_angle_r	hip_flexion_l	hip_adduction_l	hip_rotation_l	knee_angle_l	ankle_angle_l	subtalar_angle_l	mtp_angle_l	lumbar_extension	lumbar_bending	lumbar_rotation
      1.43716667	     -7.00041088	      2.34062711	     -4.27290232	      0.43303960	      1.06939863	      0.25669634	     24.25352134	     -4.34489100	     -2.46461785	    -63.17294976	      5.32630854	     -3.66787320	      5.78503556	     13.83204450	      3.51620315	     -1.34019577	    -11.50479559	      8.25214920	      3.48641457	      1.82924199	    -11.72298605	     -6.54208801	     -1.09553968
      1.44133333	     -7.00796951	      2.24588367	     -4.17484531	      0.43793448	      1.06995950	      0.25623133	     24.61765279	     -4.23395990	     -2.62583181	    -62.50479861	      5.58942826	     -3.53089959	      5.80462959	     13.38500845	      3.47664605	     -1.24661129	    -11.16313016	      8.31244920	      3.58140245	      1.82919873	    -11.67378363	     -6.37644862	     -1.12700831
      1.44550000	     -6.98160417	      2.16521889	     -4.06513429	      0.44282025	      1.07052163	      0.25574728	     24.93661332	     -4.15721755	     -2.80713349	    -61.81575431	      5.87691132	     -3.30970358	      5.84409644	     12.90052761	      3.46050457	     -1.10126973	    -10.81760876	      8.38623477	      3.57742424	      1.82571659	    -11.66535578	     -6.24237689	     -1.29876842
      1.44966667	     -6.97219993	      2.08954941	     -3.96208818	      0.44768043	      1.07100272	      0.25528886	     25.27230331	     -4.07898346	     -2.97787410	    -61.10877927	      6.14358722	     -3.18211281	      5.87673484	     12.43766684	      3.44329206	     -0.96886818	    -10.47245810	      8.43584049	      3.58850475	      1.82133561	    -11.63923146	     -6.10342447	     -1.41282912
      1.45383333	     -6.98223773	      2.00255625	     -3.86257097	      0.45254046	      1.07142324	      0.25486123	     25.61531086	     -3.98256322	     -3.14549175	    -60.36787247	      6.39302392	     -3.11869240	      5.89543877	     12.00786030	      3.40623302	     -0.87195228	    -10.15493039	      8.48225995	      3.63586137	      1.81893100	    -11.58334781	     -5.96546772	     -1.47823902
      1.45800000	     -7.00223383	      1.92752454	     -3.77495410	      0.45738696	      1.07177056	      0.25445060	     25.97135724	     -3.89588100	     -3.29890947	    -59.61877180	      6.62846921	     -3.08534360	      5.90802730	     11.58372057	      3.37910495	     -0.77057084	     -9.82235457	      8.55263857	      3.69407876	      1.81794974	    -11.53015375	     -5.82146933	     -1.54118900
      1.46216667	     -6.96972344	      1.85223715	     -3.67117459	      0.46220202	      1.07217306	      0.25401845	     26.25506889	     -3.82521035	     -3.47404300	    -58.83605000	      6.83712187	     -3.04103480	      5.93064635	     11.10364713	      3.36209464	     -0.59357034	     -9.48871821	      8.61876008	      3.62236470	      1.81125717	    -11.53488112	     -5.68674013	     -1.74467346
      1.46633333	     -7.00837404	      1.78088936	     -3.58314339	      0.46702102	      1.07239777	      0.25364648	     26.61401671	     -3.74086229	     -3.62544930	    -58.04136368	      7.06018805	     -3.06816291	      5.93910114	     10.71937400	      3.33151970	     -0.50795288	     -9.19497010	      8.67861085	      3.66009040	      1.80921833	    -11.44817235	     -5.56980785	     -1.78655575
      1.47050000	     -7.02658260	      1.70635220	     -3.49558476	      0.47181607	      1.07262643	      0.25328565	     26.94123866	     -3.65511920	     -3.77833064	    -57.22209922	      7.25374265	     -3.11999975	      5.94381394	     10.31365845	      3.29878259	     -0.39995594	     -8.89986609	      8.75707387	      3.67619705	      1.80702978	    -11.39445806	     -5.44004336	     -1.86008136
      1.47466667	     -7.05426614	      1.64203652	     -3.41274702	      0.47659373	      1.07278486	      0.25294754	     27.27629571	     -3.57751735	     -3.92126204	    -56.39095967	      7.43188734	     -3.20567844	      5.94452246	      9.92208743	      3.27404285	     -0.29134609	     -8.60979549	      8.83749816	      3.67893451	      1.80485421	    -11.33105814	     -5.32540747	     -1.94447067
      1.47883333	     -7.07623557	      1.58772998	     -3.33343252	      0.48134097	      1.07289899	      0.25263238	     27.60209997	     -3.50914371	     -4.05518014	    -55.54728254	      7.59596977	     -3.31954760	      5.94078314	      9.53022018	      3.25815520	     -0.17776075	     -8.32744293	      8.92118266	      3.66460229	      1.80220964	    -11.27834254	     -5.22294900	     -2.03638250
      1.48300000	     -7.10656898	      1.53418202	     -3.25963409	      0.48607931	      1.07297344	      0.25234161	     27.92894170	     -3.43661542	     -4.18012164	    -54.68358566	      7.74832545	     -3.45939705	      5.93303659	      9.15153436	      3.23965158	     -0.07096418	     -8.05255819	      9.00531069	      3.65648952	      1.79996269	    -11.21856012	     -5.12251627	     -2.10901888
